<svg version="1.1" id="Layer_1" xmlns="http://www.w3.org/2000/svg" xmlns:xlink="http://www.w3.org/1999/xlink" x="0px" y="0px"
	 width="100%" viewBox="0 0 496 496" enable-background="new 0 0 496 496" xml:space="preserve">
<path fill="#000000" opacity="1.000000" stroke="none" 
	d="
M49.976097,167.991272 
	C53.789238,164.873596 57.722775,164.896988 61.520222,166.691772 
	C65.251846,168.455429 65.405945,172.097366 65.386131,175.735687 
	C65.322617,187.399689 65.321114,199.064407 65.368240,210.728546 
	C65.403198,219.383591 67.717323,221.629456 76.398788,221.684784 
	C87.770905,221.757263 87.566818,221.763245 87.226837,210.152039 
	C86.900185,198.995926 86.934830,187.824463 87.045143,176.662048 
	C87.115913,169.500870 89.297379,166.432541 94.096481,165.721436 
	C101.308617,164.652786 105.045944,168.005524 105.152893,176.108673 
	C105.304611,187.604431 105.179695,199.103607 105.214622,210.601212 
	C105.243660,220.160873 106.741898,221.715363 116.180077,221.671600 
	C128.335342,221.615250 126.542686,223.106537 126.638969,211.476715 
	C126.738297,199.479904 126.625496,187.481476 126.684944,175.484131 
	C126.719185,168.571747 129.580444,165.567184 135.772095,165.681564 
	C141.608353,165.789383 144.315796,168.813354 144.330994,175.515793 
	C144.371429,193.345490 144.371140,211.175400 144.332153,229.005096 
	C144.315079,236.815582 141.707535,239.394836 133.730286,239.402176 
	C113.401070,239.420853 93.071419,239.425400 72.742645,239.310242 
	C57.422554,239.223480 48.552326,231.156906 47.943062,215.892075 
	C47.391911,202.083145 47.761189,188.236954 47.758991,174.407196 
	C47.758640,172.195145 48.476162,170.155380 49.976097,167.991272 
z"/>
<path fill="#000000" opacity="1.000000" stroke="none" 
	d="
M329.960632,260.937988 
	C324.082550,266.978943 316.689636,267.385101 309.357605,267.742859 
	C303.546265,268.026428 297.705536,268.278229 291.908112,267.511017 
	C286.754181,266.828949 284.750183,264.433868 284.621368,259.159668 
	C284.482178,253.460968 286.251160,250.780624 291.768707,250.311569 
	C298.381927,249.749344 305.063660,250.005554 311.715088,249.874756 
	C314.402527,249.821915 317.130341,249.750595 317.892517,245.789276 
	C314.919067,244.780838 311.949921,245.309601 309.062225,245.228912 
	C303.746552,245.080399 298.433136,245.395569 293.125824,244.512085 
	C281.430298,242.565186 274.214996,235.110245 273.771820,223.309418 
	C273.384796,213.004532 273.397125,202.663330 273.764801,192.357147 
	C274.167999,181.056351 281.751587,173.197006 293.050629,171.642929 
	C304.486206,170.070068 315.985809,170.834030 327.448212,171.056000 
	C333.749664,171.177994 336.259308,174.233337 336.280579,180.741318 
	C336.348663,201.547531 336.364410,222.354538 336.242981,243.160339 
	C336.205414,249.593826 334.795624,255.723328 329.960632,260.937988 
M291.287994,197.866089 
	C291.302917,205.183823 291.296356,212.501709 291.340851,219.819260 
	C291.367493,224.200394 293.587067,226.730713 297.989349,226.905579 
	C303.802368,227.136429 309.624939,227.118301 315.442535,227.246933 
	C318.239044,227.308777 318.662720,225.592178 318.655884,223.328964 
	C318.625610,213.350189 318.562683,203.370056 318.701538,193.393066 
	C318.747437,190.094315 317.348785,188.939255 314.248047,188.998444 
	C309.260620,189.093674 304.265533,188.903076 299.282379,189.079041 
	C293.410187,189.286407 291.970490,190.833221 291.287994,197.866089 
z"/>
<path fill="#000000" opacity="1.000000" stroke="none" 
	d="
M259.260223,184.240448 
	C261.022339,199.612930 259.922882,214.611740 260.039978,229.584961 
	C260.093628,236.448395 257.252991,239.247971 251.391800,239.350723 
	C245.673843,239.450974 242.873123,237.419983 242.604858,231.555756 
	C242.110641,220.752106 242.151566,209.921448 242.085892,199.101349 
	C241.990143,183.324738 242.033432,183.243942 226.137848,183.354385 
	C213.497620,183.442200 215.185699,181.421066 215.092133,194.499268 
	C215.011108,205.825104 215.187683,217.153915 215.007507,228.477539 
	C214.879547,236.518921 211.453384,239.921494 204.722565,239.291962 
	C201.015579,238.945221 198.436996,237.130295 197.628937,233.384384 
	C197.211411,231.448883 196.955200,229.438538 196.947998,227.460846 
	C196.887955,210.971130 196.873581,194.481079 196.906052,177.991257 
	C196.925812,167.963867 199.258926,165.681290 209.283798,165.670868 
	C218.111679,165.661667 226.941147,165.573685 235.767105,165.706924 
	C248.789261,165.903549 255.589920,171.234619 259.260223,184.240448 
z"/>
<path fill="#000000" opacity="1.000000" stroke="none" 
	d="
M407.999939,198.292892 
	C396.837769,198.291702 386.175568,198.302933 375.513428,198.282593 
	C370.792389,198.273575 366.234741,197.450745 362.012604,195.232727 
	C358.102753,193.178772 355.151550,190.200699 355.077209,185.593567 
	C355.004944,181.117325 358.051941,178.345779 361.643280,176.247971 
	C364.559723,174.544373 367.720764,173.639572 371.155304,173.641800 
	C406.140625,173.664520 441.125916,173.640793 476.111237,173.672791 
	C481.419739,173.677658 482.159363,174.869110 480.487976,180.108582 
	C477.121155,190.662628 466.662506,198.227127 454.980225,198.294312 
	C439.487335,198.383408 423.993439,198.301117 407.999939,198.292892 
z"/>
<path fill="#000000" opacity="1.000000" stroke="none" 
	d="
M376.051788,207.647247 
	C399.861481,207.644852 423.179840,207.632980 446.498169,207.648193 
	C452.515656,207.652115 453.518311,209.109344 451.596252,214.852112 
	C448.102356,225.291458 437.959930,232.196335 426.106903,232.164917 
	C409.285400,232.120300 392.463867,232.072479 375.642578,231.981400 
	C370.104248,231.951401 364.648193,231.489792 359.930542,228.066238 
	C353.700531,223.545181 353.501495,216.531540 359.494843,211.692520 
	C364.226593,207.872116 369.785675,207.329651 376.051788,207.647247 
z"/>
<path fill="#000000" opacity="1.000000" stroke="none" 
	d="
M267.417664,350.105743 
	C266.604950,339.557526 266.225494,329.392761 267.472260,319.309357 
	C268.630615,309.940796 273.144287,305.676239 282.468170,305.006683 
	C289.093994,304.530884 295.778564,304.822601 302.436401,304.862183 
	C306.404572,304.885773 308.921173,307.083099 308.986328,310.941681 
	C309.197174,323.422302 309.204346,335.909851 309.033966,348.391235 
	C308.985809,351.919800 306.996857,354.318298 303.018127,354.303802 
	C299.075623,354.289429 297.461029,351.918671 296.862396,348.408447 
	C296.394257,345.663391 298.013763,342.215424 295.791199,340.266541 
	C293.332184,338.110260 289.710022,339.466553 286.612640,339.397095 
	C279.365479,339.234528 279.003876,338.762512 279.257355,346.678467 
	C279.364899,350.035553 278.615570,353.187012 274.792542,354.083374 
	C271.585999,354.835175 268.801697,354.068054 267.417664,350.105743 
M287.644104,317.200134 
	C286.818634,317.215393 285.991272,317.274506 285.168030,317.238617 
	C280.531921,317.036865 279.223969,319.617859 279.271576,323.793793 
	C279.328949,328.828552 282.899078,327.407318 285.628174,327.504822 
	C287.598785,327.575195 289.607849,327.179626 291.545624,327.423004 
	C294.986298,327.855133 296.908813,327.073944 296.839020,323.093445 
	C296.778809,319.660522 296.822052,316.612396 292.031982,317.170502 
	C290.891510,317.303375 289.722565,317.191833 287.644104,317.200134 
z"/>
<path fill="#000000" opacity="1.000000" stroke="none" 
	d="
M358.207947,257.115295 
	C356.928040,248.527191 360.706390,243.397461 369.341888,241.762787 
	C372.587738,241.148346 375.928162,240.767166 379.227905,240.750336 
	C392.854401,240.680801 406.482086,240.755524 420.108765,240.855103 
	C425.183411,240.892197 426.182495,242.408493 424.750793,247.357208 
	C421.679535,257.973114 409.875519,266.113037 401.076630,265.480438 
	C391.983215,264.826630 382.804413,265.448059 373.666687,265.292816 
	C367.387817,265.186127 361.975494,263.033325 358.207947,257.115295 
z"/>
<path fill="#000000" opacity="1.000000" stroke="none" 
	d="
M184.091980,215.997452 
	C184.097137,220.654816 184.205872,224.815720 184.087494,228.970154 
	C183.882919,236.149506 181.254684,239.187546 175.371048,239.310959 
	C169.247681,239.439423 166.195709,236.363724 166.070145,229.010132 
	C165.851501,216.206894 165.962936,203.397705 165.975189,190.591049 
	C165.978714,186.908295 166.250122,183.662766 161.477539,181.920975 
	C157.614609,180.511185 157.170074,176.263412 157.968491,172.431564 
	C158.799377,168.443878 161.221115,165.928604 165.501724,165.718933 
	C167.659149,165.613251 169.824814,165.661545 171.986725,165.663956 
	C181.890182,165.675003 184.115295,167.928848 184.125198,178.075714 
	C184.137375,190.549820 184.105911,203.023956 184.091980,215.997452 
z"/>
<path fill="#000000" opacity="1.000000" stroke="none" 
	d="
M335.383362,314.149109 
	C335.374390,325.434082 335.394226,336.237427 335.341858,347.040405 
	C335.316376,352.297943 333.558899,354.378296 329.358917,354.265350 
	C324.706268,354.140289 323.638336,351.083069 323.643616,347.159576 
	C323.655029,338.683228 323.603119,330.206573 323.666809,321.730713 
	C323.685303,319.267822 323.466888,317.268158 320.795410,316.027313 
	C318.252655,314.846313 317.475555,312.391876 318.038513,309.689026 
	C318.568359,307.145416 320.318481,305.579163 322.811951,305.182007 
	C331.433990,303.808655 336.421417,305.232025 335.383362,314.149109 
z"/>
<path fill="#000000" opacity="1.000000" stroke="none" 
	d="
M174.094757,160.320251 
	C168.486710,158.961182 165.557175,155.851074 165.768478,151.573959 
	C165.983566,147.219681 168.499283,144.473404 172.588303,143.367432 
	C176.876617,142.207565 180.115646,144.069092 182.242340,147.725159 
	C185.490005,153.308350 181.787964,159.245270 174.094757,160.320251 
z"/>
<path fill="#000000" opacity="1.000000" stroke="none" 
	d="
M328.267212,290.011108 
	C332.276611,290.090363 334.629822,291.944946 335.098358,295.522095 
	C335.431061,298.062500 333.881470,300.099823 331.629181,301.018066 
	C328.512909,302.288513 325.504517,301.591187 324.131348,298.308197 
	C322.542236,294.508881 323.786987,291.526093 328.267212,290.011108 
z"/>
</svg>