<svg version="1.1" id="Layer_1" xmlns="http://www.w3.org/2000/svg" xmlns:xlink="http://www.w3.org/1999/xlink" x="0px" y="0px"
	 width="100%" viewBox="0 0 500 500" enable-background="new 0 0 500 500" xml:space="preserve">
<path fill="#FFFFFF" opacity="1.000000" stroke="none" 
	d="
M287.000000,501.000000 
	C191.333359,501.000000 96.166710,501.000000 1.000051,501.000000 
	C1.000034,334.333405 1.000034,167.666794 1.000017,1.000141 
	C167.666565,1.000094 334.333130,1.000094 500.999756,1.000047 
	C500.999847,167.666519 500.999847,334.333038 500.999939,500.999786 
	C429.833344,501.000000 358.666656,501.000000 287.000000,501.000000 
M447.388275,224.376694 
	C465.529419,225.650452 482.023590,211.911865 479.442078,197.670059 
	C479.129089,197.579575 478.816193,197.410065 478.503143,197.409821 
	C439.067688,197.377487 399.631256,197.224228 360.197876,197.500259 
	C355.073822,197.536133 349.497040,198.874146 344.947144,201.204559 
	C335.520538,206.032791 335.680908,216.262451 345.260681,220.761703 
	C350.026764,223.000122 355.739197,224.112320 361.041260,224.172516 
	C389.497070,224.495529 417.958466,224.327240 447.388275,224.376694 
M384.500000,235.994431 
	C375.678528,235.995667 366.810791,235.456329 358.053253,236.205276 
	C352.975494,236.639526 347.542603,238.273636 343.214752,240.916000 
	C336.061615,245.283340 336.054565,253.675034 343.206604,258.012024 
	C347.541534,260.640717 353.039307,262.501221 358.069244,262.633698 
	C378.860962,263.181274 399.674438,263.073181 420.478149,262.938690 
	C435.180908,262.843658 446.773376,251.188477 447.326263,235.994431 
	C426.708618,235.994431 406.104309,235.994431 384.500000,235.994431 
M392.500000,273.961212 
	C381.510925,273.973053 370.519257,273.845642 359.533783,274.050293 
	C353.200378,274.168274 347.419800,276.175354 343.076630,281.091461 
	C339.860657,284.731689 339.524445,290.610046 343.179932,293.708862 
	C346.459412,296.488922 350.679932,299.512787 354.689178,299.826904 
	C367.264557,300.812164 379.997711,301.452972 392.554779,300.577698 
	C408.075073,299.495880 418.545959,283.552277 416.324310,273.961090 
	C408.772614,273.961090 401.136322,273.961090 392.500000,273.961212 
M281.239777,264.907074 
	C282.516083,261.296661 283.792389,257.686279 285.382141,253.189194 
	C286.250732,255.824341 286.770782,257.393646 287.285431,258.964691 
	C291.879639,272.989227 296.468079,287.015625 301.070587,301.037415 
	C301.962921,303.755951 303.472443,305.298920 306.658478,304.248474 
	C309.615417,303.273499 310.542053,301.655090 309.526978,298.592377 
	C304.153992,282.380463 298.866394,266.140106 293.604370,249.891724 
	C292.163513,245.442444 288.667267,245.004410 284.826233,245.071365 
	C281.114716,245.136063 278.238037,245.914108 276.886993,250.224960 
	C271.976135,265.893921 266.743774,281.462402 261.585297,297.053131 
	C260.592804,300.052765 259.498840,302.854462 263.826477,304.235107 
	C268.090424,305.595490 269.002228,302.708679 269.969055,299.732086 
	C273.656738,288.378906 277.349457,277.027313 281.239777,264.907074 
M30.858778,195.642975 
	C30.553753,194.520416 30.264400,193.393295 29.940351,192.276260 
	C29.312084,190.110504 29.259300,187.263443 25.791504,187.956558 
	C22.100180,188.694351 23.485739,191.317383 24.017414,193.466873 
	C26.290342,202.656006 28.430676,211.885483 31.040113,220.979507 
	C31.887642,223.933182 30.547739,228.884216 35.503849,229.183289 
	C41.102173,229.521133 39.773605,224.115173 40.757233,221.084763 
	C42.714088,215.055954 43.975536,208.801422 45.524303,202.640152 
	C45.947464,202.671997 46.370625,202.703857 46.793785,202.735703 
	C48.766464,210.371719 50.604721,218.047241 52.828285,225.609497 
	C53.259178,227.074936 55.057259,228.802322 56.482773,229.078964 
	C57.439877,229.264709 59.582016,227.304825 59.945530,225.965988 
	C63.034462,214.589264 65.907082,203.151260 68.606369,191.675598 
	C68.851868,190.631882 67.432281,189.196518 66.785919,187.943024 
	C65.488625,188.621689 63.951595,189.064514 62.974239,190.057953 
	C62.265678,190.778183 62.278545,192.223053 62.004257,193.353180 
	C60.254784,200.561432 58.514896,207.771988 56.771854,214.981796 
	C53.934193,207.743988 52.067829,200.431717 50.198593,193.120193 
	C49.606987,190.806122 49.876484,187.903625 46.189789,187.861221 
	C42.498013,187.818756 42.648235,190.735367 42.084412,193.035370 
	C40.290077,200.354965 38.576572,207.694382 36.831837,215.026154 
	C36.454540,215.035522 36.077244,215.044907 35.699947,215.054276 
	C34.134396,208.853485 32.568844,202.652695 30.858778,195.642975 
M314.513367,197.922729 
	C311.667969,198.262039 308.821777,198.876648 305.977417,198.868210 
	C302.710876,198.858505 299.414551,197.859314 296.188690,198.091049 
	C292.542511,198.352997 289.107422,200.136368 288.951569,204.324310 
	C288.649780,212.432953 288.863373,220.560791 288.863373,228.549194 
	C292.999420,230.216507 294.491852,228.815735 294.416748,224.960281 
	C294.306580,219.303253 294.321503,213.643219 294.333649,207.984589 
	C294.340485,204.785904 295.210602,202.697357 299.204895,202.734329 
	C302.980560,202.769272 304.811859,203.975449 304.770447,207.839020 
	C304.707977,213.663895 304.601257,219.496994 304.869385,225.310196 
	C304.931488,226.657242 306.431213,227.937988 307.269440,229.249237 
	C308.314117,227.942413 310.184387,226.681580 310.260193,225.320801 
	C310.583588,219.515015 310.396454,213.679581 310.355652,207.855225 
	C310.331879,204.462662 311.553955,202.736542 315.353882,202.725189 
	C319.202515,202.713699 320.843201,204.111298 320.793182,207.932907 
	C320.702637,214.856308 320.767517,221.781738 320.767517,228.583496 
	C326.076782,229.336136 326.343353,229.248840 326.444489,225.277802 
	C326.580078,219.955048 326.482819,214.626373 326.484253,209.300232 
	C326.486664,200.285446 324.312286,198.049530 314.513367,197.922729 
M138.455505,229.068848 
	C140.793503,229.512543 142.498337,228.945007 142.507202,226.208694 
	C142.545486,214.389450 142.609634,202.568710 142.404526,190.753036 
	C142.387054,189.746567 140.453812,188.773361 139.410538,187.784714 
	C138.570724,188.778198 137.195831,189.678940 137.004135,190.784790 
	C136.622406,192.986862 136.891113,195.301697 136.891113,197.950241 
	C132.871307,197.950241 129.399078,197.815826 125.941216,197.981598 
	C120.692917,198.233170 117.925591,200.943146 117.774147,206.058960 
	C117.621483,211.215485 117.793373,216.380829 117.711922,221.540543 
	C117.649460,225.498016 119.621582,227.949905 123.315819,228.635910 
	C126.061363,229.145737 128.953766,229.070404 131.761063,228.910294 
	C132.549438,228.865311 133.963730,227.479767 133.867477,226.919205 
	C133.691620,225.895035 132.771240,224.753952 131.841324,224.182190 
	C131.110504,223.732864 129.880325,223.940689 128.902069,224.075302 
	C124.392876,224.695755 122.976730,222.561996 123.261620,218.327271 
	C123.506889,214.681351 122.942924,210.952835 123.463547,207.366348 
	C123.698914,205.745010 125.492767,203.402451 126.938576,203.099289 
	C130.057800,202.445236 133.409134,202.898163 136.876099,202.898163 
	C136.876099,205.499023 136.819595,207.477081 136.886490,209.450974 
	C137.104492,215.884125 137.367538,222.315735 138.455505,229.068848 
M213.270065,188.271454 
	C212.961838,189.701477 212.397202,191.129547 212.386292,192.561829 
	C212.305038,203.225540 212.212204,213.892914 212.460434,224.551270 
	C212.497055,226.123688 214.131073,228.795059 215.338654,228.986572 
	C218.682648,229.516876 218.060150,226.512222 218.074310,224.465866 
	C218.123550,217.352478 218.093323,210.238541 218.093323,202.874023 
	C220.941330,202.874023 223.282150,203.110321 225.557556,202.824966 
	C230.330811,202.226379 231.762299,204.543167 231.641418,208.872406 
	C231.492661,214.200272 231.407242,219.547150 231.726913,224.859787 
	C231.816284,226.345001 233.430649,227.738464 234.345459,229.173996 
	C235.293304,227.806747 236.986359,226.478073 237.059464,225.065552 
	C237.369141,219.082733 237.248352,213.074478 237.187714,207.076508 
	C237.123581,200.731628 234.437073,198.072617 227.995377,197.922653 
	C224.741394,197.846893 221.484207,197.909439 218.086304,197.909439 
	C218.086304,195.336472 217.999924,193.502274 218.105759,191.679245 
	C218.281845,188.645859 217.126328,187.229935 213.270065,188.271454 
M155.091370,209.714661 
	C155.138245,202.671722 155.616913,202.396393 164.116699,202.797089 
	C170.242264,203.085861 168.317825,207.265167 168.483566,210.965897 
	C165.519562,210.965897 162.850250,210.802689 160.223038,211.063629 
	C159.417084,211.143692 158.353470,212.276672 158.104401,213.130646 
	C157.914566,213.781570 158.803085,215.459412 159.249161,215.473190 
	C163.711517,215.611038 168.187988,215.602097 172.641632,215.328140 
	C173.211578,215.293076 173.978409,213.552094 174.119064,212.527908 
	C174.366150,210.728729 174.231735,208.872162 174.200378,207.040604 
	C174.089066,200.540634 171.614899,198.059402 165.098404,197.872559 
	C150.516663,197.454468 149.680145,198.626389 149.258789,213.572510 
	C148.788162,230.266602 153.326721,229.260727 166.334457,228.897385 
	C168.166931,228.846207 170.274673,227.868271 171.682816,226.655106 
	C172.914307,225.594116 173.810394,223.643387 173.968506,222.000427 
	C174.087936,220.759598 172.808807,219.384186 172.152145,218.068665 
	C170.980865,218.905731 169.716568,219.641449 168.663864,220.607681 
	C167.557220,221.623428 166.832199,223.586807 165.631592,223.882629 
	C157.411331,225.907883 155.112595,224.006760 155.095596,215.655136 
	C155.092209,213.988937 155.089249,212.322754 155.091370,209.714661 
M259.215302,229.038803 
	C265.524475,228.667038 269.181549,225.914993 268.906708,221.402847 
	C268.836639,220.252975 267.688110,218.436493 266.783844,218.267044 
	C265.796570,218.082047 263.682953,219.298172 263.519623,220.175323 
	C262.993164,223.002350 261.755981,224.323761 258.857758,224.070007 
	C256.392548,223.854172 251.792267,223.896667 251.764557,223.541641 
	C251.243149,216.862259 251.262848,210.140640 251.169495,203.427826 
	C254.772675,203.400787 258.527985,202.795029 261.891632,203.679260 
	C262.981567,203.965790 263.045135,208.156723 263.697174,211.098511 
	C259.504822,211.098511 256.403351,211.098511 252.256500,211.098511 
	C253.139969,213.097656 253.645874,215.477554 254.298172,215.518372 
	C258.579376,215.786285 262.904388,215.693512 267.182495,215.332306 
	C267.880707,215.273361 268.814117,213.354034 268.967072,212.205154 
	C270.450378,201.061447 267.670349,197.905960 256.556152,197.877075 
	C255.056641,197.873184 253.551041,197.805237 252.058609,197.911774 
	C247.161789,198.261353 244.376297,200.887726 244.161133,205.806702 
	C243.942871,210.795975 243.946640,215.807770 244.139297,220.798645 
	C244.337845,225.941803 247.227997,228.714462 252.314896,229.003998 
	C254.308136,229.117432 256.312836,229.029327 259.215302,229.038803 
M201.120300,198.956757 
	C197.183731,198.617783 193.243713,197.969025 189.311432,198.012970 
	C183.520828,198.077637 180.811371,201.070953 180.736786,206.738525 
	C180.660751,212.514923 183.185349,215.380341 188.945999,215.814499 
	C191.429352,216.001648 193.996063,215.567886 196.407455,216.029617 
	C197.704895,216.278046 199.418106,217.644119 199.739182,218.831589 
	C200.102585,220.175613 199.596283,222.359985 198.623322,223.341690 
	C196.142227,225.845139 187.660736,223.451019 185.999069,220.362686 
	C185.411255,219.270142 183.631683,218.818802 182.396194,218.074722 
	C181.737427,219.240204 180.542969,220.394073 180.517410,221.573273 
	C180.430695,225.575394 183.766083,228.647522 188.390182,228.973663 
	C191.206421,229.172272 194.050613,229.108017 196.876663,229.006577 
	C202.661743,228.798843 205.917023,225.450882 205.839279,219.930908 
	C205.760406,214.332626 202.610519,211.204773 196.721054,210.963257 
	C194.394211,210.867859 191.980927,211.261368 189.763016,210.752396 
	C188.490616,210.460403 186.859436,208.942215 186.610703,207.726273 
	C186.335892,206.382828 187.210938,203.627487 188.014252,203.452057 
	C190.879196,202.826431 193.987869,202.651642 196.874786,203.114304 
	C198.054199,203.303314 198.745331,205.732101 199.952362,206.814270 
	C200.896149,207.660431 202.331665,208.481247 203.474655,208.389648 
	C204.182144,208.332947 205.497223,206.272064 205.244858,205.589630 
	C204.428467,203.381851 203.013428,201.395432 201.120300,198.956757 
M325.424927,294.955414 
	C325.425873,280.139679 325.395447,265.323822 325.453796,250.508316 
	C325.465698,247.490158 324.886200,245.185181 321.269836,245.084778 
	C317.378784,244.976746 316.694214,247.308212 316.733582,250.602707 
	C316.844910,259.923645 316.769135,269.246765 316.773956,278.569031 
	C316.777710,285.892853 316.587219,293.227875 316.987366,300.530304 
	C317.060425,301.864502 319.532623,304.023834 320.944061,304.061707 
	C322.384125,304.100342 324.345795,302.259430 325.210815,300.745331 
	C325.933044,299.481110 325.400238,297.499939 325.424927,294.955414 
M105.240105,223.227463 
	C105.241043,223.727463 105.230301,224.227783 105.244942,224.727386 
	C105.308998,226.913757 105.157776,229.676224 108.377289,228.959824 
	C109.516808,228.706253 110.775635,226.285522 110.913048,224.758194 
	C111.270050,220.790283 111.036331,216.769104 111.035912,212.769180 
	C111.034439,198.763718 109.953667,197.698517 95.975616,197.917648 
	C95.475723,197.925476 94.973816,197.897720 94.476036,197.932388 
	C89.070831,198.308990 86.266403,201.034180 86.125153,206.491333 
	C85.965652,212.653870 85.900246,218.832504 86.209328,224.983261 
	C86.281036,226.410233 88.035965,227.752609 89.016365,229.133911 
	C89.991394,227.753143 91.727493,226.415253 91.808105,224.984131 
	C92.135658,219.169006 92.103661,213.320450 91.913666,207.493698 
	C91.769928,203.085556 94.339615,202.568359 97.705879,202.868118 
	C100.886902,203.151398 105.265167,201.406555 105.215286,207.282761 
	C105.172852,212.282074 105.227638,217.282227 105.240105,223.227463 
M275.794037,207.630493 
	C275.796814,213.775604 275.663086,219.926666 275.929504,226.060318 
	C275.976929,227.152100 277.685852,228.171722 278.627563,229.224655 
	C279.588989,228.339615 281.365112,227.472885 281.385498,226.566696 
	C281.583191,217.770767 281.569916,208.966019 281.338318,200.171143 
	C281.316467,199.341202 279.462341,198.092712 278.330231,197.929184 
	C277.620819,197.826721 276.110962,199.290207 275.942535,200.227570 
	C275.566437,202.320847 275.805573,204.524658 275.794037,207.630493 
M76.421288,229.170288 
	C77.291565,227.859161 78.874268,226.569641 78.914795,225.233353 
	C79.151749,217.420441 79.173447,209.591248 78.886604,201.781540 
	C78.836929,200.429031 76.965042,199.143463 75.934837,197.826965 
	C75.008987,199.099380 73.321358,200.348663 73.281876,201.648010 
	C73.039421,209.626968 73.065758,217.620132 73.286232,225.600723 
	C73.319824,226.816910 74.826912,227.992401 76.421288,229.170288 
M279.838562,287.904114 
	C281.003601,291.276917 283.624420,293.051636 286.691528,291.520325 
	C288.577911,290.578491 290.867706,287.272308 290.452057,285.691406 
	C289.927155,283.694855 286.971252,281.276367 284.815308,281.003296 
	C281.002838,280.520386 279.513702,283.542114 279.838562,287.904114 
M275.094421,189.322388 
	C275.889008,191.189056 276.415436,193.274734 277.647949,194.783691 
	C277.999847,195.214508 281.168152,194.370087 281.670929,193.399017 
	C282.334290,192.117844 282.007935,188.842163 281.467957,188.689880 
	C279.637177,188.173569 277.524872,188.655579 275.094421,189.322388 
M76.449875,187.154221 
	C75.018036,188.600540 73.295792,189.889084 72.362793,191.606415 
	C72.135437,192.024887 74.341309,194.480896 75.723663,194.829620 
	C76.809883,195.103638 79.555328,193.384949 79.475845,192.880356 
	C79.174690,190.968719 78.023659,189.190979 76.449875,187.154221 
z"/>
<path fill="#040404" opacity="1.000000" stroke="none" 
	d="
M446.903107,224.352661 
	C417.958466,224.327240 389.497070,224.495529 361.041260,224.172516 
	C355.739197,224.112320 350.026764,223.000122 345.260681,220.761703 
	C335.680908,216.262451 335.520538,206.032791 344.947144,201.204559 
	C349.497040,198.874146 355.073822,197.536133 360.197876,197.500259 
	C399.631256,197.224228 439.067688,197.377487 478.503143,197.409821 
	C478.816193,197.410065 479.129089,197.579575 479.440582,197.675232 
	C482.023590,211.911865 465.529419,225.650452 446.903107,224.352661 
z"/>
<path fill="#030303" opacity="1.000000" stroke="none" 
	d="
M385.000000,235.994431 
	C406.104309,235.994431 426.708618,235.994431 447.326263,235.994431 
	C446.773376,251.188477 435.180908,262.843658 420.478149,262.938690 
	C399.674438,263.073181 378.860962,263.181274 358.069244,262.633698 
	C353.039307,262.501221 347.541534,260.640717 343.206604,258.012024 
	C336.054565,253.675034 336.061615,245.283340 343.214752,240.916000 
	C347.542603,238.273636 352.975494,236.639526 358.053253,236.205276 
	C366.810791,235.456329 375.678528,235.995667 385.000000,235.994431 
z"/>
<path fill="#030303" opacity="1.000000" stroke="none" 
	d="
M393.000000,273.961151 
	C401.136322,273.961090 408.772614,273.961090 416.324310,273.961090 
	C418.545959,283.552277 408.075073,299.495880 392.554779,300.577698 
	C379.997711,301.452972 367.264557,300.812164 354.689178,299.826904 
	C350.679932,299.512787 346.459412,296.488922 343.179932,293.708862 
	C339.524445,290.610046 339.860657,284.731689 343.076630,281.091461 
	C347.419800,276.175354 353.200378,274.168274 359.533783,274.050293 
	C370.519257,273.845642 381.510925,273.973053 393.000000,273.961151 
z"/>
<path fill="#0A0A0A" opacity="1.000000" stroke="none" 
	d="
M281.140015,265.291107 
	C277.349457,277.027313 273.656738,288.378906 269.969055,299.732086 
	C269.002228,302.708679 268.090424,305.595490 263.826477,304.235107 
	C259.498840,302.854462 260.592804,300.052765 261.585297,297.053131 
	C266.743774,281.462402 271.976135,265.893921 276.886993,250.224960 
	C278.238037,245.914108 281.114716,245.136063 284.826233,245.071365 
	C288.667267,245.004410 292.163513,245.442444 293.604370,249.891724 
	C298.866394,266.140106 304.153992,282.380463 309.526978,298.592377 
	C310.542053,301.655090 309.615417,303.273499 306.658478,304.248474 
	C303.472443,305.298920 301.962921,303.755951 301.070587,301.037415 
	C296.468079,287.015625 291.879639,272.989227 287.285431,258.964691 
	C286.770782,257.393646 286.250732,255.824341 285.382141,253.189194 
	C283.792389,257.686279 282.516083,261.296661 281.140015,265.291107 
z"/>
<path fill="#0A0A0A" opacity="1.000000" stroke="none" 
	d="
M30.931034,196.047440 
	C32.568844,202.652695 34.134396,208.853485 35.699947,215.054276 
	C36.077244,215.044907 36.454540,215.035522 36.831837,215.026154 
	C38.576572,207.694382 40.290077,200.354965 42.084412,193.035370 
	C42.648235,190.735367 42.498013,187.818756 46.189789,187.861221 
	C49.876484,187.903625 49.606987,190.806122 50.198593,193.120193 
	C52.067829,200.431717 53.934193,207.743988 56.771854,214.981796 
	C58.514896,207.771988 60.254784,200.561432 62.004257,193.353180 
	C62.278545,192.223053 62.265678,190.778183 62.974239,190.057953 
	C63.951595,189.064514 65.488625,188.621689 66.785919,187.943024 
	C67.432281,189.196518 68.851868,190.631882 68.606369,191.675598 
	C65.907082,203.151260 63.034462,214.589264 59.945530,225.965988 
	C59.582016,227.304825 57.439877,229.264709 56.482773,229.078964 
	C55.057259,228.802322 53.259178,227.074936 52.828285,225.609497 
	C50.604721,218.047241 48.766464,210.371719 46.793785,202.735703 
	C46.370625,202.703857 45.947464,202.671997 45.524303,202.640152 
	C43.975536,208.801422 42.714088,215.055954 40.757233,221.084763 
	C39.773605,224.115173 41.102173,229.521133 35.503849,229.183289 
	C30.547739,228.884216 31.887642,223.933182 31.040113,220.979507 
	C28.430676,211.885483 26.290342,202.656006 24.017414,193.466873 
	C23.485739,191.317383 22.100180,188.694351 25.791504,187.956558 
	C29.259300,187.263443 29.312084,190.110504 29.940351,192.276260 
	C30.264400,193.393295 30.553753,194.520416 30.931034,196.047440 
z"/>
<path fill="#060606" opacity="1.000000" stroke="none" 
	d="
M314.967712,197.922607 
	C324.312286,198.049530 326.486664,200.285446 326.484253,209.300232 
	C326.482819,214.626373 326.580078,219.955048 326.444489,225.277802 
	C326.343353,229.248840 326.076782,229.336136 320.767517,228.583496 
	C320.767517,221.781738 320.702637,214.856308 320.793182,207.932907 
	C320.843201,204.111298 319.202515,202.713699 315.353882,202.725189 
	C311.553955,202.736542 310.331879,204.462662 310.355652,207.855225 
	C310.396454,213.679581 310.583588,219.515015 310.260193,225.320801 
	C310.184387,226.681580 308.314117,227.942413 307.269440,229.249237 
	C306.431213,227.937988 304.931488,226.657242 304.869385,225.310196 
	C304.601257,219.496994 304.707977,213.663895 304.770447,207.839020 
	C304.811859,203.975449 302.980560,202.769272 299.204895,202.734329 
	C295.210602,202.697357 294.340485,204.785904 294.333649,207.984589 
	C294.321503,213.643219 294.306580,219.303253 294.416748,224.960281 
	C294.491852,228.815735 292.999420,230.216507 288.863373,228.549194 
	C288.863373,220.560791 288.649780,212.432953 288.951569,204.324310 
	C289.107422,200.136368 292.542511,198.352997 296.188690,198.091049 
	C299.414551,197.859314 302.710876,198.858505 305.977417,198.868210 
	C308.821777,198.876648 311.667969,198.262039 314.967712,197.922607 
z"/>
<path fill="#0F0F0F" opacity="1.000000" stroke="none" 
	d="
M138.034378,228.908386 
	C137.367538,222.315735 137.104492,215.884125 136.886490,209.450974 
	C136.819595,207.477081 136.876099,205.499023 136.876099,202.898163 
	C133.409134,202.898163 130.057800,202.445236 126.938576,203.099289 
	C125.492767,203.402451 123.698914,205.745010 123.463547,207.366348 
	C122.942924,210.952835 123.506889,214.681351 123.261620,218.327271 
	C122.976730,222.561996 124.392876,224.695755 128.902069,224.075302 
	C129.880325,223.940689 131.110504,223.732864 131.841324,224.182190 
	C132.771240,224.753952 133.691620,225.895035 133.867477,226.919205 
	C133.963730,227.479767 132.549438,228.865311 131.761063,228.910294 
	C128.953766,229.070404 126.061363,229.145737 123.315819,228.635910 
	C119.621582,227.949905 117.649460,225.498016 117.711922,221.540543 
	C117.793373,216.380829 117.621483,211.215485 117.774147,206.058960 
	C117.925591,200.943146 120.692917,198.233170 125.941216,197.981598 
	C129.399078,197.815826 132.871307,197.950241 136.891113,197.950241 
	C136.891113,195.301697 136.622406,192.986862 137.004135,190.784790 
	C137.195831,189.678940 138.570724,188.778198 139.410538,187.784714 
	C140.453812,188.773361 142.387054,189.746567 142.404526,190.753036 
	C142.609634,202.568710 142.545486,214.389450 142.507202,226.208694 
	C142.498337,228.945007 140.793503,229.512543 138.034378,228.908386 
z"/>
<path fill="#0E0E0E" opacity="1.000000" stroke="none" 
	d="
M213.622253,188.117340 
	C217.126328,187.229935 218.281845,188.645859 218.105759,191.679245 
	C217.999924,193.502274 218.086304,195.336472 218.086304,197.909439 
	C221.484207,197.909439 224.741394,197.846893 227.995377,197.922653 
	C234.437073,198.072617 237.123581,200.731628 237.187714,207.076508 
	C237.248352,213.074478 237.369141,219.082733 237.059464,225.065552 
	C236.986359,226.478073 235.293304,227.806747 234.345459,229.174011 
	C233.430649,227.738464 231.816284,226.345001 231.726913,224.859787 
	C231.407242,219.547150 231.492661,214.200272 231.641418,208.872406 
	C231.762299,204.543167 230.330811,202.226379 225.557556,202.824966 
	C223.282150,203.110321 220.941330,202.874023 218.093323,202.874023 
	C218.093323,210.238541 218.123550,217.352478 218.074310,224.465866 
	C218.060150,226.512222 218.682648,229.516876 215.338654,228.986572 
	C214.131073,228.795059 212.497055,226.123688 212.460434,224.551270 
	C212.212204,213.892914 212.305038,203.225540 212.386292,192.561829 
	C212.397202,191.129547 212.961838,189.701477 213.622253,188.117340 
z"/>
<path fill="#0E0E0E" opacity="1.000000" stroke="none" 
	d="
M155.088730,210.185608 
	C155.089249,212.322754 155.092209,213.988937 155.095596,215.655136 
	C155.112595,224.006760 157.411331,225.907883 165.631592,223.882629 
	C166.832199,223.586807 167.557220,221.623428 168.663864,220.607681 
	C169.716568,219.641449 170.980865,218.905731 172.152145,218.068665 
	C172.808807,219.384186 174.087936,220.759598 173.968506,222.000427 
	C173.810394,223.643387 172.914307,225.594116 171.682816,226.655106 
	C170.274673,227.868271 168.166931,228.846207 166.334457,228.897385 
	C153.326721,229.260727 148.788162,230.266602 149.258789,213.572510 
	C149.680145,198.626389 150.516663,197.454468 165.098404,197.872559 
	C171.614899,198.059402 174.089066,200.540634 174.200378,207.040604 
	C174.231735,208.872162 174.366150,210.728729 174.119064,212.527908 
	C173.978409,213.552094 173.211578,215.293076 172.641632,215.328140 
	C168.187988,215.602097 163.711517,215.611038 159.249161,215.473190 
	C158.803085,215.459412 157.914566,213.781570 158.104401,213.130646 
	C158.353470,212.276672 159.417084,211.143692 160.223038,211.063629 
	C162.850250,210.802689 165.519562,210.965897 168.483566,210.965897 
	C168.317825,207.265167 170.242264,203.085861 164.116699,202.797089 
	C155.616913,202.396393 155.138245,202.671722 155.088730,210.185608 
z"/>
<path fill="#0F0F0F" opacity="1.000000" stroke="none" 
	d="
M258.763794,229.035919 
	C256.312836,229.029327 254.308136,229.117432 252.314896,229.003998 
	C247.227997,228.714462 244.337845,225.941803 244.139297,220.798645 
	C243.946640,215.807770 243.942871,210.795975 244.161133,205.806702 
	C244.376297,200.887726 247.161789,198.261353 252.058609,197.911774 
	C253.551041,197.805237 255.056641,197.873184 256.556152,197.877075 
	C267.670349,197.905960 270.450378,201.061447 268.967072,212.205154 
	C268.814117,213.354034 267.880707,215.273361 267.182495,215.332306 
	C262.904388,215.693512 258.579376,215.786285 254.298172,215.518372 
	C253.645874,215.477554 253.139969,213.097656 252.256500,211.098511 
	C256.403351,211.098511 259.504822,211.098511 263.697174,211.098511 
	C263.045135,208.156723 262.981567,203.965790 261.891632,203.679260 
	C258.527985,202.795029 254.772675,203.400787 251.169495,203.427826 
	C251.262848,210.140640 251.243149,216.862259 251.764557,223.541641 
	C251.792267,223.896667 256.392548,223.854172 258.857758,224.070007 
	C261.755981,224.323761 262.993164,223.002350 263.519623,220.175323 
	C263.682953,219.298172 265.796570,218.082047 266.783844,218.267044 
	C267.688110,218.436493 268.836639,220.252975 268.906708,221.402847 
	C269.181549,225.914993 265.524475,228.667038 258.763794,229.035919 
z"/>
<path fill="#0E0E0E" opacity="1.000000" stroke="none" 
	d="
M201.474670,199.140244 
	C203.013428,201.395432 204.428467,203.381851 205.244858,205.589630 
	C205.497223,206.272064 204.182144,208.332947 203.474655,208.389648 
	C202.331665,208.481247 200.896149,207.660431 199.952362,206.814270 
	C198.745331,205.732101 198.054199,203.303314 196.874786,203.114304 
	C193.987869,202.651642 190.879196,202.826431 188.014252,203.452057 
	C187.210938,203.627487 186.335892,206.382828 186.610703,207.726273 
	C186.859436,208.942215 188.490616,210.460403 189.763016,210.752396 
	C191.980927,211.261368 194.394211,210.867859 196.721054,210.963257 
	C202.610519,211.204773 205.760406,214.332626 205.839279,219.930908 
	C205.917023,225.450882 202.661743,228.798843 196.876663,229.006577 
	C194.050613,229.108017 191.206421,229.172272 188.390182,228.973663 
	C183.766083,228.647522 180.430695,225.575394 180.517410,221.573273 
	C180.542969,220.394073 181.737427,219.240204 182.396194,218.074722 
	C183.631683,218.818802 185.411255,219.270142 185.999069,220.362686 
	C187.660736,223.451019 196.142227,225.845139 198.623322,223.341690 
	C199.596283,222.359985 200.102585,220.175613 199.739182,218.831589 
	C199.418106,217.644119 197.704895,216.278046 196.407455,216.029617 
	C193.996063,215.567886 191.429352,216.001648 188.945999,215.814499 
	C183.185349,215.380341 180.660751,212.514923 180.736786,206.738525 
	C180.811371,201.070953 183.520828,198.077637 189.311432,198.012970 
	C193.243713,197.969025 197.183731,198.617783 201.474670,199.140244 
z"/>
<path fill="#020202" opacity="1.000000" stroke="none" 
	d="
M325.424072,295.395844 
	C325.400238,297.499939 325.933044,299.481110 325.210815,300.745331 
	C324.345795,302.259430 322.384125,304.100342 320.944061,304.061707 
	C319.532623,304.023834 317.060425,301.864502 316.987366,300.530304 
	C316.587219,293.227875 316.777710,285.892853 316.773956,278.569031 
	C316.769135,269.246765 316.844910,259.923645 316.733582,250.602707 
	C316.694214,247.308212 317.378784,244.976746 321.269836,245.084778 
	C324.886200,245.185181 325.465698,247.490158 325.453796,250.508316 
	C325.395447,265.323822 325.425873,280.139679 325.424072,295.395844 
z"/>
<path fill="#101010" opacity="1.000000" stroke="none" 
	d="
M105.239761,222.754730 
	C105.227638,217.282227 105.172852,212.282074 105.215286,207.282761 
	C105.265167,201.406555 100.886902,203.151398 97.705879,202.868118 
	C94.339615,202.568359 91.769928,203.085556 91.913666,207.493698 
	C92.103661,213.320450 92.135658,219.169006 91.808105,224.984131 
	C91.727493,226.415253 89.991394,227.753143 89.016373,229.133911 
	C88.035965,227.752609 86.281036,226.410233 86.209328,224.983261 
	C85.900246,218.832504 85.965652,212.653870 86.125153,206.491333 
	C86.266403,201.034180 89.070831,198.308990 94.476036,197.932388 
	C94.973816,197.897720 95.475723,197.925476 95.975616,197.917648 
	C109.953667,197.698517 111.034439,198.763718 111.035912,212.769180 
	C111.036331,216.769104 111.270050,220.790283 110.913048,224.758194 
	C110.775635,226.285522 109.516808,228.706253 108.377289,228.959824 
	C105.157776,229.676224 105.308998,226.913757 105.244942,224.727386 
	C105.230301,224.227783 105.241043,223.727463 105.239761,222.754730 
z"/>
<path fill="#161616" opacity="1.000000" stroke="none" 
	d="
M275.794067,207.156967 
	C275.805573,204.524658 275.566437,202.320847 275.942535,200.227570 
	C276.110962,199.290207 277.620819,197.826721 278.330231,197.929184 
	C279.462341,198.092712 281.316467,199.341202 281.338318,200.171143 
	C281.569916,208.966019 281.583191,217.770767 281.385498,226.566696 
	C281.365112,227.472885 279.588989,228.339615 278.627563,229.224655 
	C277.685852,228.171722 275.976929,227.152100 275.929504,226.060318 
	C275.663086,219.926666 275.796814,213.775604 275.794067,207.156967 
z"/>
<path fill="#0D0D0D" opacity="1.000000" stroke="none" 
	d="
M76.036880,229.178497 
	C74.826912,227.992401 73.319824,226.816910 73.286232,225.600723 
	C73.065758,217.620132 73.039421,209.626968 73.281876,201.648010 
	C73.321358,200.348663 75.008987,199.099380 75.934837,197.826965 
	C76.965042,199.143463 78.836929,200.429031 78.886604,201.781540 
	C79.173447,209.591248 79.151749,217.420441 78.914795,225.233353 
	C78.874268,226.569641 77.291565,227.859161 76.036880,229.178497 
z"/>
<path fill="#0B0B0B" opacity="1.000000" stroke="none" 
	d="
M279.750977,287.551636 
	C279.513702,283.542114 281.002838,280.520386 284.815308,281.003296 
	C286.971252,281.276367 289.927155,283.694855 290.452057,285.691406 
	C290.867706,287.272308 288.577911,290.578491 286.691528,291.520325 
	C283.624420,293.051636 281.003601,291.276917 279.750977,287.551636 
z"/>
<path fill="#151515" opacity="1.000000" stroke="none" 
	d="
M275.307251,189.039276 
	C277.524872,188.655579 279.637177,188.173569 281.467957,188.689880 
	C282.007935,188.842163 282.334290,192.117844 281.670929,193.399017 
	C281.168152,194.370087 277.999847,195.214508 277.647949,194.783691 
	C276.415436,193.274734 275.889008,191.189056 275.307251,189.039276 
z"/>
<path fill="#121212" opacity="1.000000" stroke="none" 
	d="
M76.820206,187.258682 
	C78.023659,189.190979 79.174690,190.968719 79.475845,192.880356 
	C79.555328,193.384949 76.809883,195.103638 75.723663,194.829620 
	C74.341309,194.480896 72.135437,192.024887 72.362793,191.606415 
	C73.295792,189.889084 75.018036,188.600540 76.820206,187.258682 
z"/>
</svg>