<?xml version="1.0" standalone="no"?>
<!DOCTYPE svg PUBLIC "-//W3C//DTD SVG 20010904//EN"
 "http://www.w3.org/TR/2001/REC-SVG-20010904/DTD/svg10.dtd">
 <svg version="1.0" xmlns="http://www.w3.org/2000/svg" xmlns:xlink="http://www.w3.org/1999/xlink" x="0px" y="0px"
	 width="100%" viewBox="0 0 496 496" enable-background="new 0 0 496 496" xml:space="preserve">
<metadata>
Created by potrace 1.16, written by Peter Selinger 2001-2019
</metadata>
<g transform="translate(0.000000,341.000000) scale(0.100000,-0.100000)"
fill="#000000" stroke="none">
<path d="M6446 3374 c-123 -32 -348 -105 -428 -138 -33 -14 -37 -21 -50 -78
-8 -35 -66 -305 -129 -600 -62 -296 -116 -538 -119 -538 -3 0 -43 217 -89 483
-46 265 -87 487 -90 494 -11 22 -424 -243 -516 -332 l-31 -30 -53 -390 c-30
-214 -57 -395 -60 -402 -4 -7 -51 105 -106 247 -55 143 -103 260 -107 260 -25
0 -373 -413 -365 -434 5 -13 502 -724 518 -740 8 -9 348 188 350 202 5 68 97
673 101 667 3 -6 65 -203 137 -440 73 -236 134 -431 136 -433 2 -2 110 60 241
139 l237 144 278 970 c153 534 277 973 276 976 -1 3 -60 -9 -131 -27z"/>
<path d="M123 1832 c-35 -3 -44 -7 -48 -25 -11 -49 -66 -459 -63 -469 2 -6 21
-12 42 -13 46 -2 51 7 66 125 12 98 32 133 78 138 49 5 55 -18 36 -143 -8 -59
-13 -109 -10 -112 9 -10 78 -8 84 2 13 21 38 231 31 264 -4 18 -16 42 -27 53
-27 27 -91 34 -130 14 -32 -16 -32 -16 -32 7 0 13 5 49 11 81 14 77 12 82 -38
78z"/>
<path d="M3488 1832 c-10 -2 -18 -9 -18 -15 -1 -7 -16 -118 -34 -247 -19 -129
-32 -237 -31 -238 6 -6 76 -8 84 -2 9 6 62 380 64 454 2 46 0 49 -23 50 -14 1
-33 0 -42 -2z"/>
<path d="M2310 1813 c-1 -10 -16 -121 -34 -248 -19 -126 -32 -232 -30 -234 8
-9 86 -6 90 3 2 6 11 58 19 116 16 112 32 140 79 140 49 0 54 -32 32 -177 -13
-91 -17 -84 48 -86 36 -1 37 3 56 155 10 87 10 113 0 138 -23 55 -95 76 -154
45 -16 -9 -30 -14 -31 -13 -1 2 3 42 10 91 l12 87 -49 0 c-39 0 -48 -3 -48
-17z"/>
<path d="M504 1661 c-23 -10 -54 -36 -70 -56 -24 -32 -29 -49 -32 -109 -4 -82
15 -122 70 -156 40 -24 126 -27 167 -5 127 65 132 269 8 325 -53 24 -91 25
-143 1z m120 -93 c9 -12 16 -42 16 -66 0 -35 -6 -49 -29 -73 -33 -33 -56 -36
-88 -14 -63 44 -24 175 52 175 24 0 39 -7 49 -22z"/>
<path d="M906 1670 c-90 -27 -143 -165 -102 -265 27 -63 113 -93 176 -60 l33
17 -7 -33 c-9 -49 -42 -79 -86 -79 -39 0 -80 23 -80 46 0 17 -7 17 -49 3 -40
-14 -41 -46 -3 -81 42 -40 70 -50 133 -49 66 1 107 18 138 56 29 38 37 72 61
240 11 83 23 162 26 178 5 26 4 27 -40 27 -34 0 -46 -4 -46 -15 0 -19 2 -19
-45 5 -42 21 -63 23 -109 10z m104 -90 c14 -14 20 -33 20 -66 0 -37 -5 -51
-29 -75 -55 -54 -111 -25 -111 57 0 37 5 51 29 75 34 34 63 37 91 9z"/>
<path d="M1295 1662 c-69 -33 -105 -94 -105 -179 0 -97 62 -163 152 -163 58 0
104 18 137 53 29 31 23 53 -18 62 -23 5 -35 1 -50 -14 -21 -21 -37 -25 -76
-21 -27 3 -56 30 -53 49 3 13 22 16 111 17 59 0 110 4 114 7 12 13 5 104 -10
134 -34 64 -128 90 -202 55z"/>
<path d="M1650 1667 c-47 -16 -83 -71 -76 -116 7 -46 29 -67 90 -87 61 -20 69
-26 60 -47 -13 -34 -94 -29 -94 6 0 15 -67 11 -76 -5 -12 -19 8 -59 39 -78 60
-37 175 -20 211 31 9 13 16 42 16 65 0 52 -34 85 -105 103 -39 10 -46 15 -43
34 4 32 67 38 75 7 4 -14 11 -19 24 -15 11 3 28 8 39 11 26 7 25 34 -1 63 -38
41 -93 51 -159 28z"/>
<path d="M1995 1668 c-36 -13 -82 -53 -101 -90 -17 -32 -20 -132 -6 -169 13
-31 65 -77 98 -85 42 -11 124 2 152 23 15 11 35 34 45 51 l18 31 -40 12 c-37
11 -42 10 -58 -9 -10 -12 -32 -25 -50 -28 -45 -9 -83 30 -83 85 0 86 92 135
139 74 20 -25 23 -25 61 -14 37 11 39 13 29 39 -29 75 -117 110 -204 80z"/>
<path d="M2759 1671 c-79 -26 -123 -91 -123 -186 -1 -73 24 -122 74 -147 44
-23 121 -23 167 -1 109 51 127 252 28 313 -37 23 -108 33 -146 21z m100 -107
c63 -81 -39 -214 -109 -144 -34 34 -19 147 22 163 33 14 67 6 87 -19z"/>
<path d="M3149 1670 c-77 -23 -124 -93 -124 -185 0 -112 64 -171 174 -163 102
7 161 75 161 183 0 127 -95 201 -211 165z m95 -96 c52 -52 11 -174 -58 -174
-35 0 -66 39 -66 82 0 42 21 93 42 101 27 11 67 6 82 -9z"/>
<path d="M1184 1000 c-32 -13 -64 -59 -64 -92 0 -20 10 -40 30 -60 28 -27 36
-30 73 -25 52 7 87 44 87 92 0 47 -8 64 -41 80 -31 17 -54 18 -85 5z"/>
<path d="M5045 996 c-44 -19 -68 -82 -49 -131 8 -19 55 -45 83 -45 73 0 130
97 88 151 -29 38 -72 47 -122 25z"/>
<path d="M2406 978 c-3 -13 -13 -77 -22 -143 -9 -66 -17 -121 -19 -123 -1 -2
-19 7 -39 19 -50 29 -146 29 -204 0 -99 -50 -154 -150 -156 -281 -1 -92 22
-157 70 -199 62 -55 167 -65 241 -21 27 16 33 17 33 5 0 -11 12 -15 43 -16 23
-1 54 -2 70 -3 15 -2 27 0 27 3 0 4 25 180 55 391 30 212 55 386 55 388 0 1
-34 2 -75 2 -69 0 -75 -2 -79 -22z m-113 -368 c91 -72 29 -280 -83 -280 -114
0 -122 227 -10 282 45 23 62 23 93 -2z"/>
<path d="M3807 993 c-9 -16 -110 -763 -104 -770 6 -5 138 -5 144 0 1 2 12 70
24 152 11 83 27 165 35 182 17 44 73 71 109 55 48 -22 51 -48 27 -215 -12 -84
-22 -159 -22 -167 0 -12 15 -15 75 -15 41 0 75 3 75 7 0 4 12 88 26 185 16
112 23 194 19 221 -9 59 -56 110 -112 123 -48 10 -123 -2 -160 -27 -28 -18
-28 -27 -4 144 l18 132 -73 0 c-40 0 -75 -3 -77 -7z"/>
<path d="M10 969 c0 -33 80 -742 85 -749 2 -4 14 -6 27 -4 13 1 48 3 80 3 52
1 57 3 66 29 5 15 56 126 113 247 l104 220 8 -40 c4 -22 25 -134 45 -249 l38
-209 84 0 85 1 152 378 c84 208 153 382 153 386 0 4 -40 8 -89 8 l-89 0 -61
-167 c-34 -93 -74 -201 -89 -240 -14 -40 -29 -73 -32 -73 -3 0 -23 108 -45
240 l-39 240 -82 0 -81 0 -111 -247 c-62 -137 -112 -241 -113 -233 0 8 -2 22
-3 30 -3 16 -11 126 -22 300 -4 58 -8 112 -10 120 -1 8 -3 18 -3 23 -1 4 -39
7 -86 7 -79 0 -85 -1 -85 -21z"/>
<path d="M1663 751 c-17 -5 -48 -18 -68 -30 -44 -26 -47 -26 -43 -3 3 14 -7
17 -64 20 -63 3 -68 1 -72 -20 -5 -20 -47 -332 -63 -458 l-5 -45 72 2 c40 2
75 4 77 6 2 3 13 75 25 162 24 177 40 213 96 227 37 10 77 -8 89 -39 4 -9 -3
-89 -15 -177 -12 -89 -22 -165 -22 -171 0 -6 32 -10 75 -10 41 0 75 0 75 0 0
0 11 79 25 175 30 210 31 245 6 290 -31 59 -113 90 -188 71z"/>
<path d="M2807 750 c-59 -15 -91 -36 -136 -86 -92 -105 -96 -295 -7 -392 66
-73 204 -90 309 -38 52 25 117 90 117 117 0 4 -27 16 -60 27 l-59 21 -35 -35
c-27 -27 -42 -34 -75 -34 -55 0 -87 17 -106 55 -8 18 -15 36 -15 39 0 3 78 6
174 6 198 0 187 -5 188 89 0 98 -41 174 -114 209 -52 25 -129 34 -181 22z"/>
<path d="M3375 751 c-126 -23 -195 -130 -151 -236 18 -42 58 -68 147 -95 69
-21 86 -38 69 -70 -21 -40 -116 -32 -127 11 -5 18 -11 20 -62 13 -31 -3 -59
-8 -63 -11 -15 -8 -8 -51 15 -84 34 -52 88 -74 177 -73 86 0 140 22 184 74 32
39 40 68 33 127 -7 64 -45 99 -143 132 -69 23 -79 29 -82 52 -6 53 97 60 114
7 4 -15 12 -18 27 -14 12 3 39 9 60 12 46 8 50 14 36 51 -31 81 -125 124 -234
104z"/>
<path d="M4531 750 c-130 -27 -211 -138 -211 -290 0 -114 39 -188 120 -230
115 -59 291 -15 348 87 l22 41 -60 21 -61 20 -27 -30 c-52 -59 -161 -48 -188
17 -8 19 -14 36 -14 39 0 3 79 5 175 5 l175 0 6 25 c3 14 4 54 2 89 -9 149
-133 237 -287 206z"/>
<path d="M5497 746 c-21 -8 -47 -22 -58 -32 -18 -16 -19 -16 -19 5 0 21 -4 22
-67 19 l-68 -3 -36 -255 c-19 -140 -34 -257 -32 -260 4 -4 145 -1 149 3 1 1
13 81 27 177 23 161 27 176 51 197 33 28 70 29 96 3 25 -25 25 -39 -1 -216
-11 -79 -19 -149 -17 -155 3 -10 148 -21 148 -12 0 24 43 308 50 335 12 43 42
68 82 68 61 0 69 -40 43 -221 -8 -57 -17 -122 -20 -144 l-5 -40 75 0 c87 0 74
-24 105 197 25 184 25 219 0 268 -26 52 -70 74 -141 73 -63 -1 -90 -12 -135
-54 l-31 -30 -11 25 c-22 50 -118 77 -185 52z"/>
<path d="M1116 718 c-12 -55 -57 -398 -59 -448 l-2 -54 63 -1 c35 0 67 2 71 5
7 5 58 357 69 468 l4 52 -71 0 c-65 0 -71 -2 -75 -22z"/>
<path d="M4985 728 c-3 -11 -63 -441 -68 -492 -2 -18 4 -20 68 -19 64 1 70 3
77 25 6 19 44 283 65 451 l6 47 -72 0 c-49 0 -73 -4 -76 -12z"/>
</g>
</svg>
